<svg width="20" height="20" viewBox="0 0 20 20" fill="none" xmlns="http://www.w3.org/2000/svg">
<path d="M0.475 10C0.475 4.73999 4.73999 0.475 10 0.475C15.26 0.475 19.525 4.73999 19.525 10C19.525 15.26 15.26 19.525 10 19.525C4.73999 19.525 0.475 15.26 0.475 10ZM1.90781 10C1.90781 14.4681 5.53188 18.0922 10 18.0922C14.4681 18.0922 18.0922 14.4681 18.0922 10C18.0922 5.53188 14.4681 1.90781 10 1.90781C5.53188 1.90781 1.90781 5.53188 1.90781 10Z" fill="#A0A0A0" stroke="white" stroke-width="0.2"/>
<path fill-rule="evenodd" clip-rule="evenodd" d="M7.49414 6.96687C7.49414 5.599 8.60302 4.49011 9.97091 4.49011C11.3388 4.49011 12.4477 5.599 12.4477 6.96687V7.5252C12.4477 7.62378 12.3677 7.70371 12.2692 7.70371H11.332C11.2334 7.70371 11.1535 7.62378 11.1535 7.5252V7.0115C11.1535 6.35837 10.624 5.8289 9.97091 5.8289C9.31776 5.8289 8.78831 6.35837 8.78831 7.0115V8.5288C8.78831 8.86158 8.92576 9.16228 9.14702 9.3772L10.5739 10.74L10.5872 10.7528C10.6672 10.8292 10.637 10.9622 10.5292 10.987C10.3498 11.0283 10.1629 11.0502 9.97091 11.0502C8.60302 11.0502 7.49414 9.94132 7.49414 8.57343V6.96687ZM9.9714 14.8885C11.3393 14.8885 12.4482 13.7797 12.4482 12.4118V10.8052C12.4482 9.43735 11.3393 8.32848 9.9714 8.32848C9.77942 8.32848 9.59252 8.35034 9.41308 8.39167C9.30531 8.41648 9.27505 8.54947 9.35502 8.62587L9.36846 8.63867L10.7952 10.0015C11.0165 10.2164 11.154 10.517 11.154 10.8499V12.3672C11.154 13.0203 10.6246 13.5498 9.9714 13.5498C9.31825 13.5498 8.7888 13.0203 8.7888 12.3672V11.854C8.7888 11.7554 8.70888 11.6755 8.6103 11.6755H7.67315C7.57456 11.6755 7.49464 11.7554 7.49464 11.854V12.4118C7.49464 13.7797 8.60352 14.8885 9.9714 14.8885Z" fill="#A0A0A0"/>
</svg>
