<svg width="20" height="20" viewBox="0 0 20 20" fill="none" xmlns="http://www.w3.org/2000/svg">
<path fill-rule="evenodd" clip-rule="evenodd" d="M10 20C15.5228 20 20 15.5228 20 10C20 4.47715 15.5228 0 10 0C4.47715 0 0 4.47715 0 10C0 15.5228 4.47715 20 10 20ZM4.21745 14.5333H6.49609V5.05417H4.21745V14.5333ZM8.7513 5.05417V14.5333H11.8698C12.6901 14.529 13.4323 14.3337 14.0964 13.9474C14.7648 13.5568 15.2813 13.0186 15.6458 12.3328C16.0148 11.6427 16.1992 10.8636 16.1992 9.99557V9.55938C16.1949 8.7 16.0039 7.92526 15.6263 7.23516C15.253 6.54071 14.7322 6.00469 14.0638 5.62708C13.3954 5.24514 12.6424 5.05417 11.8047 5.05417H8.7513ZM11.0365 12.7755V6.81849H11.8047C12.4774 6.81849 12.9896 7.05069 13.3411 7.5151C13.6927 7.97951 13.8685 8.66962 13.8685 9.58542V9.99557C13.8685 10.9157 13.6927 11.6102 13.3411 12.0789C12.9896 12.5433 12.4861 12.7755 11.8307 12.7755H11.0365Z" fill="url(#paint0_linear_2245:1051)"/>
<defs>
<linearGradient id="paint0_linear_2245:1051" x1="10" y1="0" x2="10" y2="20" gradientUnits="userSpaceOnUse">
<stop stop-color="#F50083"/>
<stop offset="1" stop-color="#720497"/>
</linearGradient>
</defs>
</svg>
