<svg width="1000" height="1000" viewBox="0 0 1000 1000" fill="none" xmlns="http://www.w3.org/2000/svg">
<g clip-path="url(#clip0_1852:4682)">
<path d="M998.866 1.13379H1.13379V998.866H998.866V1.13379Z" fill="url(#paint0_linear_1852:4682)" stroke="black" stroke-miterlimit="10"/>
<path d="M673.5 369C639.029 341.826 596.522 292.469 521.614 283.19C451.346 273.911 379.752 320.969 331.36 352.12C282.968 383.27 191.487 474.734 153.701 502.571C115.916 530.408 19.1317 556.257 -136.651 649.709C-292.434 743.162 -903.632 1135.53 -903.632 1135.53L-744.535 1137.52L-1453.84 1502.71H-1382.91L-1485 1580.26C-1485 1580.26 -1394.84 1604.12 -1319.27 1556.4V1578.27C-1319.27 1578.27 -474.733 1245.55 -311.658 1331.71L-411.094 1360.88C-402.476 1360.88 -242.053 1371.48 -242.053 1371.48C-238.159 1404.69 -226.993 1436.64 -209.348 1465.05C-191.704 1493.46 -168.014 1517.63 -139.965 1535.85C-43.1813 1599.48 -41.1926 1634.61 -41.1926 1634.61C-41.1926 1634.61 -91.5735 1655.15 -91.5735 1681C-91.5735 1681 -17.328 1658.47 51.6141 1660.45C95.3694 1662.11 138.768 1669.01 180.88 1681C180.88 1681 175.577 1653.16 108.624 1634.61C41.6705 1616.05 -24.6201 1543.14 -57.1024 1503.37C-76.9985 1478.06 -89.9661 1448.01 -94.7312 1416.17C-99.4963 1384.33 -95.8953 1351.8 -84.2815 1321.77C-61.0798 1261.46 19.7946 1228.32 186.847 1142.16C383.729 1040.09 428.807 964.531 456.649 905.544C484.491 846.556 525.591 729.243 548.793 674.232C577.96 603.314 613.757 565.536 643.588 543.001C673.419 520.467 806 470.758 806 470.758C806 470.758 705.982 394.849 673.5 369Z" fill="white"/>
<circle cx="540" cy="402" r="25" fill="#D32D79"/>
</g>
<defs>
<linearGradient id="paint0_linear_1852:4682" x1="260.5" y1="1" x2="741.5" y2="968.5" gradientUnits="userSpaceOnUse">
<stop stop-color="#D32D79"/>
<stop offset="1" stop-color="#B91D65"/>
</linearGradient>
<clipPath id="clip0_1852:4682">
<rect width="1000" height="1000" rx="500" fill="white"/>
</clipPath>
</defs>
</svg>
